<?xml version="1.0" encoding="utf-8"?>
<!-- Generator: Adobe Illustrator 23.0.5, SVG Export Plug-In . SVG Version: 6.00 Build 0)  -->
<svg version="1.1" id="Capa_1" xmlns="http://www.w3.org/2000/svg" xmlns:xlink="http://www.w3.org/1999/xlink" x="0px" y="0px"
	 viewBox="0 0 20 10" style="enable-background:new 0 0 20 10;" xml:space="preserve">
<style type="text/css">
	.st0{fill:#660099;}
</style>
<path class="st0" d="M6.9,7.9H5.8c-0.2,0-0.3-0.1-0.3-0.3c0-0.2,0.1-0.3,0.3-0.3h1.1c0.2,0,0.3,0.1,0.3,0.3C7.2,7.8,7.1,7.9,6.9,7.9
	z"/>
<path class="st0" d="M16.2,7.9h-0.7c-0.2,0-0.3-0.1-0.3-0.3c0-0.2,0.1-0.3,0.3-0.3H16l0.4-2.1c0-1.1-0.9-1.9-2-1.9h-1.9l-0.9,4h1.6
	c0.2,0,0.3,0.1,0.3,0.3c0,0.2-0.1,0.3-0.3,0.3h-2c-0.1,0-0.2,0-0.2-0.1c-0.1-0.1-0.1-0.2-0.1-0.2L12,3c0-0.1,0.1-0.2,0.3-0.2h2.1
	c1.4,0,2.6,1.2,2.6,2.6l-0.4,2.3C16.5,7.8,16.3,7.9,16.2,7.9z"/>
<path class="st0" d="M14.3,8.8c-0.8,0-1.4-0.6-1.4-1.4s0.6-1.4,1.4-1.4s1.4,0.6,1.4,1.4S15.1,8.8,14.3,8.8z M14.3,6.5
	c-0.5,0-0.9,0.4-0.9,0.9c0,0.5,0.4,0.9,0.9,0.9c0.5,0,0.9-0.4,0.9-0.9C15.2,6.9,14.8,6.5,14.3,6.5z"/>
<path class="st0" d="M8.1,9.1c-0.8,0-1.4-0.6-1.4-1.4s0.6-1.4,1.4-1.4s1.4,0.6,1.4,1.4S8.8,9.1,8.1,9.1z M8.1,6.8
	c-0.5,0-0.9,0.4-0.9,0.9c0,0.5,0.4,0.9,0.9,0.9s0.9-0.4,0.9-0.9C8.9,7.2,8.5,6.8,8.1,6.8z"/>
<path class="st0" d="M6.9,2.8H4.6c-0.2,0-0.3-0.1-0.3-0.3c0-0.2,0.1-0.3,0.3-0.3h2.3c0.2,0,0.3,0.1,0.3,0.3C7.2,2.6,7.1,2.8,6.9,2.8
	z"/>
<path class="st0" d="M6.9,4.5H4.1c-0.2,0-0.3-0.1-0.3-0.3s0.1-0.3,0.3-0.3h2.9c0.2,0,0.3,0.1,0.3,0.3S7.1,4.5,6.9,4.5z"/>
<path class="st0" d="M6.9,6.2H3.5c-0.2,0-0.3-0.1-0.3-0.3s0.1-0.3,0.3-0.3h3.4c0.2,0,0.3,0.1,0.3,0.3S7.1,6.2,6.9,6.2z"/>
<path class="st0" d="M11.2,7.9h-2C9,7.9,8.9,7.8,8.9,7.6c0-0.2,0.1-0.3,0.3-0.3H11l1.3-5.7H5.8c-0.2,0-0.3-0.1-0.3-0.3S5.6,1,5.8,1
	h6.9c0.1,0,0.2,0,0.2,0.1c0.1,0.1,0.1,0.2,0.1,0.2l-1.4,6.3C11.4,7.8,11.3,7.9,11.2,7.9L11.2,7.9z"/>
</svg>
