<?xml version="1.0" encoding="utf-8"?>
<!-- Generator: Adobe Illustrator 23.0.5, SVG Export Plug-In . SVG Version: 6.00 Build 0)  -->
<svg version="1.1" id="Capa_1" xmlns="http://www.w3.org/2000/svg" xmlns:xlink="http://www.w3.org/1999/xlink" x="0px" y="0px"
	 viewBox="0 0 100 100" style="enable-background:new 0 0 100 100;" xml:space="preserve">
<style type="text/css">
	.st0{fill:#FFFFFF;}
</style>
<g>
	<path class="st0" d="M71.1,72.7c-5.3,0.2-10.5,0.5-15.8,0.9c-5.3,0.4-10.5,0.8-15.8,1.3c-2.3,0.2-4.5-0.1-6.6-1
		c-2.9-1.2-4.4-3.9-4.1-7c0.2-2,0.8-3.8,1.7-5.5c0.1-0.3,0.2-0.5,0.1-0.7C26.3,45.9,22,31.2,17.6,16.5c-0.1-0.3-0.2-0.4-0.5-0.4
		c-2.6,0-5.2,0-7.9,0c-1.7,0-3.2-1.2-3.5-2.8c-0.3-1.7,0.5-3.3,2.1-4c0.5-0.2,1-0.3,1.5-0.3c3.6,0,7.2,0,10.8,0c1.8,0,3.1,1,3.6,2.7
		c0.9,3.1,1.8,6.2,2.7,9.2c0.1,0.4,0.3,0.5,0.7,0.5c20.1,0,40.1,0,60.2,0c0.5,0,0.9,0,1.4,0.1c1.7,0.5,2.9,2.2,2.6,4
		c-0.5,2.8-1.1,5.7-1.6,8.5c-1.5,7.6-2.9,15.1-4.4,22.7c-0.4,1.9-1.5,2.9-3.4,3.2c-4.7,0.6-9.4,1.1-14.1,1.7c-4,0.5-8.1,1-12.1,1.5
		c-4.7,0.6-9.4,1.1-14.1,1.7c-2,0.2-4.1,0.5-6.1,0.7c-0.2,0-0.3,0-0.3,0.2c-0.2,0.6-0.4,1.1-0.4,1.7c0,0.8,0.1,1.1,0.9,1.4
		c0.7,0.3,1.5,0.4,2.2,0.5c1.1,0.1,2.3-0.1,3.4-0.2c5.2-0.4,10.4-0.9,15.6-1.2c5.9-0.4,11.8-0.8,17.7-0.9c2.3-0.1,4.6-0.1,6.8,0
		c1.6,0.1,2.8,1.4,2.8,2.9c-0.1,1.6-1.4,2.8-3,2.7C77.6,72.5,74.4,72.6,71.1,72.7z M37.5,28.5c-2.8,0-5.6,0-8.5,0
		c-0.3,0-0.4,0.1-0.3,0.4c1.1,3.6,2.2,7.2,3.2,10.8c0.1,0.3,0.2,0.4,0.5,0.4c4.5,0,9,0,13.5,0c0.3,0,0.4-0.1,0.4-0.4
		c0-3.6,0-7.2,0-10.7c0-0.3-0.1-0.4-0.4-0.4C43.1,28.5,40.3,28.5,37.5,28.5z M57.1,43.4c-2.3,0-4.7,0-7,0c-0.3,0-0.4,0-0.4,0.3
		c0,4.1,0,8.3,0,12.4c0,0.3,0.1,0.3,0.3,0.3c0.8-0.1,1.5-0.2,2.3-0.3c3.9-0.5,7.8-0.9,11.6-1.4c0.3,0,0.4-0.1,0.4-0.5
		c0-3.5,0-7,0-10.5c0-0.3-0.1-0.4-0.4-0.4C61.7,43.4,59.4,43.4,57.1,43.4z M57.1,40c2.3,0,4.6,0,7,0c0.3,0,0.4-0.1,0.4-0.4
		c0-3.6,0-7.2,0-10.7c0-0.3-0.1-0.4-0.4-0.4c-4.7,0-9.3,0-14,0c-0.3,0-0.4,0.1-0.4,0.4c0,3.6,0,7.2,0,10.8c0,0.3,0.1,0.4,0.4,0.4
		C52.4,40,54.7,40,57.1,40z M75.5,28.5c-2.5,0-4.9,0-7.4,0c-0.2,0-0.4,0-0.4,0.3c0,3.6,0,7.3,0,10.9c0,0.2,0.1,0.3,0.3,0.3
		c4.2,0,8.4,0,12.6,0c0.2,0,0.3-0.1,0.4-0.3c0.7-3.6,1.4-7.2,2.1-10.8c0.1-0.3,0-0.4-0.3-0.4C80.4,28.5,78,28.5,75.5,28.5z
		 M46.3,50.2c0-1.9,0-3.8,0-5.7c0-0.3,0.2-0.8-0.1-1c-0.2-0.2-0.6-0.1-1-0.1c-3.9,0-7.9,0-11.8,0c-0.3,0-0.4,0-0.3,0.4
		c1.4,4.6,2.8,9.3,4.1,13.9c0.1,0.2,0.2,0.3,0.4,0.3c2.8-0.3,5.5-0.7,8.3-1c0.3,0,0.4-0.1,0.4-0.4C46.3,54.4,46.3,52.3,46.3,50.2z
		 M74.1,43.4c-2,0-4,0-5.9,0c-0.3,0-0.4,0.1-0.4,0.4c0,0.2,0,0.4,0,0.6c0,3.2,0,6.4,0,9.5c0,0.2-0.1,0.4,0.3,0.4
		c3.3-0.4,6.7-0.8,10-1.2c0.3,0,0.4-0.2,0.5-0.5c0.6-2.9,1.1-5.8,1.7-8.8c0.1-0.3,0-0.4-0.3-0.4C78,43.4,76.1,43.4,74.1,43.4z"/>
	<path class="st0" d="M34.5,92c-3.9,0-7.1-3.2-7.1-7.2c0-4,3.2-7.2,7.2-7.2c4,0,7.1,3.2,7.1,7.2C41.6,88.8,38.4,92,34.5,92z"/>
	<path class="st0" d="M75.2,77.7c3.9,0,7.2,3.2,7.2,7.1c0,4-3.2,7.2-7.2,7.2c-3.9,0-7.1-3.2-7.1-7.2C68,80.9,71.2,77.7,75.2,77.7z"
		/>
</g>
</svg>
