<?xml version="1.0" encoding="utf-8"?>
<!-- Generator: Adobe Illustrator 23.0.5, SVG Export Plug-In . SVG Version: 6.00 Build 0)  -->
<svg version="1.1" id="Capa_1" xmlns="http://www.w3.org/2000/svg" xmlns:xlink="http://www.w3.org/1999/xlink" x="0px" y="0px"
	 viewBox="0 0 45 10" style="enable-background:new 0 0 45 10;" xml:space="preserve">
<style type="text/css">
	.st0{fill:#FFC107;}
</style>
<path class="st0" d="M8.8,4C8.7,3.8,8.6,3.7,8.4,3.7L6,3.5L5,1.3C5,1.1,4.8,1,4.6,1C4.4,1,4.3,1.1,4.2,1.3l-1,2.2L0.8,3.7
	C0.7,3.7,0.5,3.8,0.4,4c-0.1,0.2,0,0.4,0.1,0.5l1.8,1.6L1.9,8.5c0,0.2,0,0.4,0.2,0.5C2.1,9,2.2,9,2.3,9C2.4,9,2.5,9,2.5,9l2.1-1.2
	L6.7,9C6.9,9,7,9,7.2,8.9c0.1-0.1,0.2-0.3,0.2-0.5L6.8,6.1l1.8-1.6C8.8,4.4,8.8,4.2,8.8,4z"/>
<path class="st0" d="M17.6,4c-0.1-0.2-0.2-0.3-0.4-0.3l-2.4-0.2l-1-2.2C13.7,1.1,13.6,1,13.4,1C13.2,1,13,1.1,13,1.3l-1,2.2L9.6,3.7
	C9.4,3.7,9.3,3.8,9.2,4c-0.1,0.2,0,0.4,0.1,0.5l1.8,1.6l-0.5,2.4c0,0.2,0,0.4,0.2,0.5C10.9,9,11,9,11.1,9c0.1,0,0.2,0,0.2-0.1
	l2.1-1.2L15.5,9C15.6,9,15.8,9,16,8.9c0.1-0.1,0.2-0.3,0.2-0.5l-0.5-2.4l1.8-1.6C17.6,4.4,17.6,4.2,17.6,4z"/>
<path class="st0" d="M26.6,4c-0.1-0.2-0.2-0.3-0.4-0.3l-2.4-0.2l-1-2.2C22.7,1.1,22.6,1,22.4,1C22.2,1,22,1.1,22,1.3l-1,2.2
	l-2.4,0.2c-0.2,0-0.3,0.1-0.4,0.3c-0.1,0.2,0,0.4,0.1,0.5l1.8,1.6l-0.5,2.4c0,0.2,0,0.4,0.2,0.5C19.9,9,20,9,20.1,9
	c0.1,0,0.2,0,0.2-0.1l2.1-1.2L24.5,9C24.6,9,24.8,9,25,8.9c0.1-0.1,0.2-0.3,0.2-0.5l-0.5-2.4l1.8-1.6C26.6,4.4,26.6,4.2,26.6,4z"/>
<path class="st0" d="M35.6,4c-0.1-0.2-0.2-0.3-0.4-0.3l-2.4-0.2l-1-2.2C31.7,1.1,31.6,1,31.4,1C31.2,1,31,1.1,31,1.3l-1,2.2
	l-2.4,0.2c-0.2,0-0.3,0.1-0.4,0.3c-0.1,0.2,0,0.4,0.1,0.5l1.8,1.6l-0.5,2.4c0,0.2,0,0.4,0.2,0.5C28.9,9,29,9,29.1,9
	c0.1,0,0.2,0,0.2-0.1l2.1-1.2L33.5,9C33.6,9,33.8,9,34,8.9c0.1-0.1,0.2-0.3,0.2-0.5l-0.5-2.4l1.8-1.6C35.6,4.4,35.6,4.2,35.6,4z"/>
<path class="st0" d="M44.6,4c-0.1-0.2-0.2-0.3-0.4-0.3l-2.4-0.2l-1-2.2C40.7,1.1,40.6,1,40.4,1S40,1.1,40,1.3l-1,2.2l-2.4,0.2
	c-0.2,0-0.3,0.1-0.4,0.3c-0.1,0.2,0,0.4,0.1,0.5l1.8,1.6l-0.5,2.4c0,0.2,0,0.4,0.2,0.5C37.9,9,38,9,38.1,9c0.1,0,0.2,0,0.2-0.1
	l2.1-1.2L42.5,9C42.6,9,42.8,9,43,8.9c0.1-0.1,0.2-0.3,0.2-0.5l-0.5-2.4l1.8-1.6C44.6,4.4,44.6,4.2,44.6,4z"/>
</svg>
